<svg width="24" height="24" viewBox="0 0 24 24" fill="none" xmlns="http://www.w3.org/2000/svg">
<g id="iconoir:learning">
<rect width="24" height="24" rx="12" fill="white"/>
<g id="Group">
<path id="Vector" d="M7.18167 20V17.7145C6.93333 15.333 4 14.0578 4 10.4003C4 6.74444 6.2725 3.95573 10.8183 4.00053C14.0908 4.03413 17.1817 5.82927 17.1817 9.48675L19 12.2291C19 14.0578 17.1817 14.0578 17.1817 14.0578C17.1817 14.0578 17.6367 18.6288 13.545 18.6288V20" stroke="black" stroke-width="1.5" stroke-linecap="round" stroke-linejoin="round"/>
<path id="Vector_2" d="M11 11C11.5304 11 12.0391 10.8946 12.4142 10.7071C12.7893 10.5196 13 10.2652 13 10C13 9.73478 12.7893 9.48043 12.4142 9.29289C12.0391 9.10536 11.5304 9 11 9C10.4696 9 9.96086 9.10536 9.58579 9.29289C9.21071 9.48043 9 9.73478 9 10C9 10.2652 9.21071 10.5196 9.58579 10.7071C9.96086 10.8946 10.4696 11 11 11Z" stroke="black" stroke-width="1.5" stroke-linecap="round" stroke-linejoin="round"/>
<path id="Vector_3" d="M10.5 13C11.163 13 11.7989 12.7366 12.2678 12.2678C12.7366 11.7989 13 11.163 13 10.5C13 9.83696 12.7366 9.20107 12.2678 8.73223C11.7989 8.26339 11.163 8 10.5 8C9.83696 8 9.20107 8.26339 8.73223 8.73223C8.26339 9.20107 8 9.83696 8 10.5C8 11.163 8.26339 11.7989 8.73223 12.2678C9.20107 12.7366 9.83696 13 10.5 13Z" stroke="black" stroke-width="1.5" stroke-linecap="round" stroke-linejoin="round" stroke-dasharray="0.3 2"/>
</g>
</g>
</svg>
