<svg width="24" height="24" viewBox="0 0 24 24" fill="none" xmlns="http://www.w3.org/2000/svg">
<g id="mdi:partnership-outline">
<rect width="24" height="24" rx="12" fill="white"/>
<path id="Vector" d="M18.4696 9.13824C19.3669 8.24106 18.9577 7.19316 18.4696 6.68356L16.3163 4.53034C15.4119 3.63317 14.3711 4.04228 13.8615 4.53034L12.6413 5.75768H10.7822C9.41844 5.75768 8.62889 6.47542 8.22693 7.30082L5.03999 10.4876V13.3586L4.53037 13.861C3.63315 14.7653 4.04228 15.8061 4.53037 16.3156L6.68371 18.4689C7.07131 18.8565 7.48762 19 7.8824 19C8.39202 19 8.85857 18.7488 9.13851 18.4689L11.0765 16.5238H13.6533C14.8736 16.5238 15.4909 15.763 15.7134 15.0165C16.5245 14.8012 16.9695 14.184 17.1489 13.5811C18.2615 13.294 18.6778 12.2389 18.6778 11.4996V9.34638H18.2543L18.4696 9.13824ZM17.2422 11.4996C17.2422 11.8226 17.1059 12.2173 16.5245 12.2173H15.8067V12.9351C15.8067 13.2581 15.6703 13.6528 15.0889 13.6528H14.3711V14.3706C14.3711 14.6936 14.2347 15.0883 13.6533 15.0883H10.4879L8.13362 17.4425C7.91111 17.6506 7.78191 17.5286 7.70295 17.4497L5.55679 15.3108C5.34864 15.0883 5.47066 14.9591 5.54962 14.8802L6.47555 13.9471V11.0761L7.91111 9.64066V10.7819C7.91111 11.6503 8.48533 12.9351 10.0644 12.9351C11.6436 12.9351 12.2178 11.6503 12.2178 10.7819H17.2422V11.4996ZM17.4504 8.11905L16.2302 9.34638H10.7822V10.7819C10.7822 11.1048 10.6458 11.4996 10.0644 11.4996C9.48304 11.4996 9.34666 11.1048 9.34666 10.7819V8.62864C9.34666 8.29848 9.46869 7.19316 10.7822 7.19316H13.2298L14.8664 5.55671C15.0889 5.34857 15.2181 5.47058 15.2971 5.54953L17.4432 7.6884C17.6514 7.9109 17.5293 8.04009 17.4504 8.11905Z" fill="black"/>
</g>
</svg>
