<svg width="24" height="24" viewBox="0 0 24 24" fill="none" xmlns="http://www.w3.org/2000/svg">
<g id="streamline:affordable-and-clean-energy-solid">
<rect width="24" height="24" rx="12" fill="white"/>
<path id="Vector" fill-rule="evenodd" clip-rule="evenodd" d="M11.5 3C11.7469 3 11.9838 3.09809 12.1584 3.27268C12.333 3.44728 12.4311 3.68408 12.4311 3.931V4.74158C12.4311 4.9885 12.333 5.2253 12.1584 5.3999C11.9838 5.57449 11.7469 5.67258 11.5 5.67258C11.2531 5.67258 11.0162 5.57449 10.8416 5.3999C10.667 5.2253 10.5689 4.9885 10.5689 4.74158V3.931C10.5689 3.68408 10.667 3.44728 10.8416 3.27268C11.0162 3.09809 11.2531 3 11.5 3ZM16.8232 11.5006C16.8232 12.1998 16.6855 12.8921 16.4179 13.5381C16.1503 14.184 15.7581 14.7709 15.2637 15.2653C14.7693 15.7597 14.1823 16.1519 13.5363 16.4194C12.8903 16.687 12.198 16.8247 11.4988 16.8247C10.7995 16.8247 10.1072 16.687 9.46118 16.4194C8.81519 16.1519 8.22823 15.7597 7.7338 15.2653C7.23938 14.7709 6.84719 14.184 6.57961 13.5381C6.31203 12.8921 6.17431 12.1998 6.17431 11.5006C6.17431 10.0886 6.73528 8.7344 7.7338 7.73594C8.73233 6.73749 10.0866 6.17656 11.4988 6.17656C12.9109 6.17656 14.2652 6.73749 15.2637 7.73594C16.2622 8.7344 16.8232 10.0886 16.8232 11.5006ZM12.4311 18.2584C12.4311 18.0115 12.333 17.7747 12.1584 17.6001C11.9838 17.4255 11.7469 17.3274 11.5 17.3274C11.2531 17.3274 11.0162 17.4255 10.8416 17.6001C10.667 17.7747 10.5689 18.0115 10.5689 18.2584V19.069C10.5689 19.3159 10.667 19.5527 10.8416 19.7273C11.0162 19.9019 11.2531 20 11.5 20C11.7469 20 11.9838 19.9019 12.1584 19.7273C12.333 19.5527 12.4311 19.3159 12.4311 19.069V18.2584ZM3 11.5006C3 11.2537 3.09809 11.0169 3.2727 10.8423C3.44731 10.6677 3.68413 10.5696 3.93106 10.5696H4.74047C4.9874 10.5696 5.22422 10.6677 5.39883 10.8423C5.57344 11.0169 5.67154 11.2537 5.67154 11.5006C5.67154 11.7475 5.57344 11.9843 5.39883 12.1589C5.22422 12.3335 4.9874 12.4316 4.74047 12.4316H3.93106C3.68413 12.4316 3.44731 12.3335 3.2727 12.1589C3.09809 11.9843 3 11.7475 3 11.5006ZM18.2595 10.5696C18.0126 10.5696 17.7758 10.6677 17.6012 10.8423C17.4266 11.0169 17.3285 11.2537 17.3285 11.5006C17.3285 11.7475 17.4266 11.9843 17.6012 12.1589C17.7758 12.3335 18.0126 12.4316 18.2595 12.4316H19.0689C19.3159 12.4316 19.5527 12.3335 19.7273 12.1589C19.9019 11.9843 20 11.7475 20 11.5006C20 11.2537 19.9019 11.0169 19.7273 10.8423C19.5527 10.6677 19.3159 10.5696 19.0689 10.5696H18.2595ZM17.5643 5.43549C17.7387 5.61005 17.8366 5.84668 17.8366 6.09339C17.8366 6.34011 17.7387 6.57673 17.5643 6.7513L17.0256 7.29127C16.9397 7.38023 16.837 7.45121 16.7234 7.50005C16.6099 7.5489 16.4877 7.57464 16.3641 7.57577C16.2405 7.5769 16.1178 7.5534 16.0034 7.50665C15.889 7.45989 15.785 7.39081 15.6975 7.30344C15.61 7.21606 15.5409 7.11215 15.494 6.99776C15.4471 6.88336 15.4235 6.76078 15.4245 6.63716C15.4255 6.51355 15.4512 6.39137 15.4999 6.27776C15.5486 6.16415 15.6195 6.06139 15.7084 5.97547L16.2472 5.43549C16.4218 5.26114 16.6584 5.16321 16.9051 5.16321C17.1519 5.16321 17.3898 5.26114 17.5643 5.43549ZM7.2891 17.0245C7.38058 16.9393 7.45395 16.8365 7.50484 16.7223C7.55573 16.6081 7.58309 16.4848 7.5853 16.3598C7.5875 16.2348 7.56451 16.1107 7.51768 15.9947C7.47085 15.8788 7.40115 15.7735 7.31274 15.6851C7.22433 15.5967 7.11901 15.527 7.00308 15.4802C6.88714 15.4333 6.76297 15.4103 6.63795 15.4126C6.51294 15.4148 6.38965 15.4421 6.27544 15.493C6.16123 15.5439 6.05844 15.6173 5.9732 15.7087L5.43442 16.2462C5.26474 16.4217 5.17078 16.6569 5.17279 16.901C5.17479 17.1451 5.2726 17.3786 5.44515 17.5513C5.61769 17.724 5.85117 17.822 6.09529 17.8243C6.33941 17.8265 6.57465 17.7328 6.75033 17.5633L7.2891 17.0245ZM5.43567 5.43549C5.61024 5.26114 5.84688 5.16321 6.09362 5.16321C6.34035 5.16321 6.57699 5.26114 6.75157 5.43549L7.29035 5.97422C7.45481 6.15071 7.54434 6.38414 7.54009 6.62533C7.53583 6.86652 7.43812 7.09664 7.26753 7.26722C7.09694 7.43779 6.8668 7.5355 6.62559 7.53976C6.38438 7.54401 6.15094 7.45448 5.97444 7.29003L5.43567 6.75254C5.26131 6.57798 5.16337 6.34135 5.16337 6.09463C5.16337 5.84792 5.26131 5.61129 5.43567 5.43673V5.43549ZM17.0256 15.7087C16.9397 15.6198 16.837 15.5488 16.7234 15.4999C16.6099 15.4511 16.4877 15.4254 16.3641 15.4242C16.2405 15.4231 16.1178 15.4466 16.0034 15.4934C15.889 15.5401 15.785 15.6092 15.6975 15.6966C15.61 15.7839 15.5409 15.8879 15.494 16.0022C15.4471 16.1166 15.4235 16.2392 15.4245 16.3628C15.4255 16.4865 15.4512 16.6086 15.4999 16.7222C15.5486 16.8358 15.6195 16.9386 15.7084 17.0245L16.2472 17.5633C16.4237 17.7277 16.6571 17.8173 16.8983 17.813C17.1396 17.8087 17.3697 17.711 17.5403 17.5405C17.7109 17.3699 17.8086 17.1398 17.8128 16.8986C17.8171 16.6574 17.7276 16.4239 17.5631 16.2475L17.0256 15.7087ZM11.5012 7.38437C11.9295 7.38437 12.2771 7.73195 12.2771 8.1602V10.3524C12.2771 10.5582 12.1954 10.7555 12.0499 10.901C11.9044 11.0465 11.707 11.1282 11.5012 11.1282C11.2955 11.1282 11.0981 11.0465 10.9526 10.901C10.8071 10.7555 10.7254 10.5582 10.7254 10.3524V8.1602C10.7254 7.73195 11.073 7.38437 11.5012 7.38437ZM9.64656 10.1029C9.70778 10.0214 9.75234 9.92861 9.7777 9.82989C9.80306 9.73116 9.80873 9.6284 9.79438 9.52749C9.78003 9.42657 9.74594 9.32947 9.69406 9.24172C9.64217 9.15398 9.57352 9.07731 9.492 9.0161C9.41049 8.95489 9.31772 8.91033 9.21899 8.88497C9.12025 8.85961 9.01749 8.85394 8.91656 8.86829C8.81564 8.88264 8.71853 8.91673 8.63078 8.96861C8.54303 9.02049 8.46636 9.08914 8.40514 9.17065C7.97425 9.74513 7.71186 10.4282 7.64736 11.1434C7.58287 11.8586 7.71882 12.5777 8.03999 13.2199C8.36116 13.8622 8.85485 14.4024 9.46575 14.7799C10.0766 15.1575 10.7806 15.3574 11.4988 15.3574C12.2169 15.3574 12.9209 15.1575 13.5318 14.7799C14.1427 14.4024 14.6364 13.8622 14.9575 13.2199C15.2787 12.5777 15.4146 11.8586 15.3502 11.1434C15.2857 10.4282 15.0233 9.74513 14.5924 9.17065C14.4689 9.00604 14.2851 8.89721 14.0814 8.86811C13.8777 8.83901 13.6708 8.89202 13.5061 9.01548C13.3415 9.13894 13.2327 9.32273 13.2036 9.52643C13.1745 9.73012 13.2275 9.93703 13.351 10.1016C13.6087 10.4456 13.7656 10.8546 13.8041 11.2827C13.8426 11.7109 13.7611 12.1412 13.5687 12.5257C13.3764 12.9101 13.0808 13.2334 12.7151 13.4593C12.3494 13.6853 11.928 13.8049 11.4981 13.8049C11.0683 13.8049 10.6469 13.6853 10.2812 13.4593C9.91546 13.2334 9.61988 12.9101 9.42755 12.5257C9.23521 12.1412 9.15371 11.7109 9.19218 11.2827C9.23064 10.8546 9.38754 10.4456 9.64532 10.1016L9.64656 10.1029Z" fill="black"/>
</g>
</svg>
