<svg width="24" height="24" viewBox="0 0 24 24" fill="none" xmlns="http://www.w3.org/2000/svg">
<g id="streamline:ai-technology-spark">
<rect width="24" height="24" rx="12" fill="white"/>
<g id="Group">
<path id="Vector" d="M15 12.7658C14.4608 13.3414 13.8044 13.8124 13.0655 14.1538V16.1161C13.0655 16.2895 12.9919 16.4559 12.8609 16.5786C12.7299 16.7012 12.5523 16.7701 12.3671 16.7701H8.17675C7.99152 16.7701 7.81389 16.7012 7.68291 16.5786C7.55194 16.4559 7.47836 16.2895 7.47836 16.1161V14.1538C6.00664 13.4658 4.88153 12.2649 4.34448 10.8088C3.80742 9.3527 3.90121 7.75746 4.60573 6.36539C5.31024 4.97333 6.56934 3.89538 8.11282 3.36287C9.65629 2.83037 11.3612 2.88574 12.8615 3.51711M7.47836 20H13.0655" stroke="black" stroke-linecap="round" stroke-linejoin="round"/>
<path id="Vector_2" d="M11.3733 7.40239C10.8756 7.32422 10.8756 6.67835 11.3733 6.60018C12.2542 6.46092 13.0695 6.08806 13.7154 5.529C14.3612 4.96995 14.8086 4.24995 15.0005 3.46054L15.0303 3.33495C15.1381 2.89028 15.8385 2.88771 15.9506 3.33111L15.9874 3.47592C16.1855 4.26227 16.6365 4.97811 17.2837 5.53336C17.9309 6.0886 18.7454 6.45844 19.6246 6.59633C20.1251 6.67578 20.1251 7.32422 19.6246 7.40367C18.7456 7.54179 17.9315 7.91173 17.2845 8.46696C16.6376 9.02219 16.1868 9.73791 15.9889 10.5241L15.952 10.6689C15.84 11.1123 15.1395 11.1097 15.0317 10.665L15.0033 10.5407C14.8112 9.75098 14.3635 9.03073 13.717 8.47164C13.0706 7.91255 12.2548 7.54118 11.3733 7.40239Z" stroke="black" stroke-linecap="round" stroke-linejoin="round"/>
</g>
</g>
</svg>
